<?xml version="1.0" standalone="no"?>
<!DOCTYPE svg PUBLIC "-//W3C//DTD SVG 20010904//EN"
 "http://www.w3.org/TR/2001/REC-SVG-20010904/DTD/svg10.dtd">
<svg version="1.0" xmlns="http://www.w3.org/2000/svg"
 width="700.000000pt" height="700.000000pt" viewBox="0 0 700.000000 700.000000"
 preserveAspectRatio="xMidYMid meet">
<metadata>
Created by potrace 1.11, written by Peter Selinger 2001-2013
</metadata>
<g transform="translate(0.000000,700.000000) scale(0.100000,-0.100000)"
fill="#000000" stroke="none">
<path d="M0 3500 l0 -3500 3500 0 3500 0 0 3500 0 3500 -3500 0 -3500 0 0
-3500z m3860 2370 c0 -23 -24 -58 -53 -76 l-32 -19 107 -3 106 -3 12 -50 c9
-35 16 -49 26 -45 7 3 58 8 114 12 l100 7 0 31 c0 34 32 110 57 138 27 30 272
23 722 -19 l184 -17 24 -53 c14 -29 28 -53 31 -53 4 0 12 10 17 22 6 13 29 33
52 46 41 22 43 23 95 7 32 -10 110 -18 201 -22 l147 -6 34 -32 c19 -17 49 -36
67 -41 l34 -10 3 -112 c2 -100 0 -118 -18 -151 -21 -35 -21 -40 -7 -97 33
-130 42 -274 42 -682 l0 -404 -28 -24 c-23 -20 -35 -23 -71 -18 -38 6 -45 4
-56 -16 -10 -18 -8 -25 9 -44 29 -31 26 -62 -8 -101 -16 -18 -36 -53 -46 -78
l-17 -45 65 -78 c42 -49 68 -90 73 -113 10 -53 13 -491 3 -491 -5 0 -9 23 -9
50 0 38 -4 50 -15 50 -11 0 -15 12 -15 50 0 28 -4 50 -10 50 -5 0 -10 10 -10
22 0 46 -12 6 -20 -64 l-7 -73 -2 58 -1 57 -567 0 c-313 0 -576 0 -586 0 -10
0 -15 4 -12 10 3 6 0 10 -8 10 -8 0 -20 7 -27 15 -7 8 -19 15 -26 15 -25 0
-15 -17 18 -31 17 -7 26 -15 19 -17 -8 -3 -9 -8 -1 -17 7 -9 6 -16 -7 -26 -13
-11 -17 -11 -20 -1 -3 6 -11 12 -19 12 -8 0 -14 8 -14 19 0 22 -40 36 -55 19
-7 -8 -5 -9 8 -5 11 4 17 1 17 -7 0 -12 54 -54 108 -83 13 -7 35 -21 49 -33
14 -11 34 -20 45 -20 12 0 17 -4 12 -12 -5 -8 -2 -9 10 -5 13 5 17 3 13 -7 -9
-22 49 -49 74 -35 14 7 19 7 17 -2 -2 -6 5 -13 16 -14 10 -2 23 -8 28 -13 6
-6 0 -8 -16 -5 -15 3 -29 9 -32 14 -3 5 -10 9 -16 9 -7 0 -6 -6 2 -15 7 -8 17
-15 22 -15 5 0 33 -19 63 -41 31 -23 61 -39 69 -36 10 4 13 1 9 -8 -3 -9 3
-18 13 -22 11 -4 54 -31 97 -60 43 -29 82 -53 88 -53 5 0 9 -5 9 -11 0 -6 9
-9 19 -6 13 3 18 0 15 -7 -3 -7 38 -39 95 -74 54 -34 101 -69 104 -77 13 -32
-52 -357 -82 -414 -6 -11 -11 -29 -11 -40 0 -11 -5 -32 -12 -48 -6 -15 -12
-34 -14 -41 -1 -8 -6 -21 -10 -30 -4 -9 -8 -20 -8 -24 -1 -3 -4 -10 -8 -14 -5
-4 -8 -14 -8 -22 0 -14 -13 -43 -90 -204 -16 -35 -40 -75 -52 -91 l-23 -27
-214 -4 c-118 -3 -248 -1 -288 4 -70 7 -76 10 -119 54 -24 25 -40 46 -36 46 5
0 25 -18 45 -40 l36 -40 283 0 284 0 42 73 c68 120 136 293 191 488 33 120 82
372 73 378 -11 8 -292 194 -377 250 -38 25 -74 49 -80 54 -10 7 -327 215 -485
318 -41 27 -80 53 -86 58 -6 5 -30 21 -55 36 -24 15 -161 105 -304 200 -1471
974 -1396 925 -1432 925 -26 0 -36 10 -78 70 -27 39 -63 81 -81 95 -18 14 -38
30 -46 38 -16 15 -130 98 -223 161 l-66 46 -93 0 c-80 0 -95 -3 -111 -20 -19
-21 -147 -74 -207 -85 -21 -4 -38 -10 -38 -12 0 -3 57 -60 127 -127 181 -174
604 -626 596 -639 -3 -5 -1 -7 4 -4 6 4 26 -10 43 -31 18 -20 58 -64 89 -98
130 -142 227 -248 244 -268 10 -12 33 -37 50 -56 18 -19 85 -93 149 -165 114
-128 459 -471 738 -736 136 -129 144 -137 133 -160 l-12 -24 0 26 c-1 18 -18
42 -58 79 -52 49 -219 205 -363 340 -30 28 -65 59 -77 67 -13 8 -23 22 -23 30
0 8 -4 12 -8 9 -4 -3 -26 13 -47 35 -21 22 -44 38 -51 35 -8 -3 -16 -1 -19 5
-4 5 -3 9 2 8 21 -4 17 4 -18 41 -35 37 -58 53 -45 31 3 -5 -1 -14 -9 -21 -10
-9 -15 -9 -15 -1 0 6 -7 11 -15 11 -8 0 -15 5 -15 10 0 6 -6 10 -13 10 -7 0
-13 9 -14 20 -1 11 4 20 12 20 8 0 13 9 12 19 0 11 -5 17 -11 14 -5 -3 -26 -8
-47 -10 -36 -4 -39 -3 -37 17 2 15 -3 24 -14 25 -10 2 -18 -1 -18 -6 0 -5
-325 -9 -800 -9 -633 0 -800 -3 -801 -12 -1 -7 0 -25 1 -40 2 -31 -14 -37 -29
-10 -8 14 -12 15 -23 4 -11 -11 -10 -14 2 -22 12 -7 12 -12 2 -22 -9 -9 -12
-9 -12 0 0 19 -23 13 -52 -13 l-28 -24 0 -244 0 -243 27 -26 c16 -14 42 -33
60 -42 30 -15 58 -48 48 -57 -2 -2 -6 -47 -10 -99 -4 -52 -8 -97 -10 -100 -2
-4 -5 -53 -6 -111 -1 -106 -13 -147 -49 -179 -9 -8 -20 -25 -24 -38 -4 -12
-11 -20 -16 -17 -4 3 -11 -3 -15 -13 -7 -19 -7 -360 0 -372 10 -16 5 -377 -5
-440 -6 -36 -12 -70 -12 -77 -1 -6 -7 -9 -14 -6 -9 3 -9 16 2 56 17 63 18 251
4 575 -12 263 -9 279 63 354 l35 37 12 213 c6 117 13 220 16 229 3 11 -9 25
-38 43 -98 59 -90 32 -96 331 -4 235 -3 265 11 265 8 0 36 23 61 51 l46 51 0
86 0 85 -55 52 -55 53 0 78 c0 71 3 84 30 124 16 25 28 52 25 61 -3 8 -18 85
-34 171 -18 99 -36 170 -50 193 -19 33 -21 50 -21 210 0 139 4 192 20 260 18
76 20 121 20 383 0 277 -1 299 -20 329 -19 32 -19 33 1 141 l21 109 266 6
c147 4 418 10 603 13 334 7 337 7 343 -14 14 -44 59 -52 280 -52 191 0 207 1
225 19 11 11 37 23 58 27 48 8 109 43 147 83 l30 31 398 0 c246 0 398 -4 398
-10z m-413 -1942 c-3 -7 -5 -2 -5 12 0 14 2 19 5 13 2 -7 2 -19 0 -25z m116
-54 c4 -8 23 -14 41 -14 33 0 62 -20 49 -33 -3 -4 1 -7 10 -7 10 0 17 -4 17
-8 0 -5 18 -15 41 -22 22 -8 45 -22 50 -31 6 -11 16 -16 25 -12 9 3 20 0 24
-7 5 -8 15 -15 23 -16 22 -3 88 -50 81 -57 -3 -3 3 -3 15 0 13 3 28 -3 44 -21
13 -14 29 -26 35 -26 6 0 16 -9 22 -20 7 -13 19 -19 37 -18 15 2 28 -2 30 -8
7 -21 29 -45 43 -48 30 -6 75 -32 110 -64 19 -18 48 -40 63 -48 15 -8 37 -24
48 -35 10 -10 23 -19 29 -19 5 0 7 -8 4 -17 -5 -14 -4 -15 4 -4 13 18 49 6 57
-20 4 -10 13 -19 22 -19 8 0 24 -12 36 -26 20 -26 21 -26 35 -8 14 18 14 18 8
0 -5 -14 -2 -17 9 -12 11 4 14 2 9 -6 -5 -8 -2 -9 10 -5 10 4 15 3 11 -3 -3
-6 0 -19 8 -31 10 -13 17 -17 22 -9 9 14 35 -6 35 -27 0 -9 6 -13 14 -10 9 4
12 0 9 -13 -6 -22 16 -38 28 -19 6 10 10 6 18 -14 6 -15 21 -29 36 -33 14 -3
25 -13 25 -21 0 -8 3 -12 8 -10 4 3 16 1 27 -3 18 -8 17 -10 -12 -21 -18 -8
-33 -17 -33 -21 0 -4 -7 -8 -15 -8 -12 0 -15 -16 -15 -80 l0 -80 -40 0 -40 0
0 -40 c0 -33 3 -40 20 -40 17 0 20 -7 20 -40 l0 -40 -60 0 -60 0 0 -40 0 -40
-40 0 -40 0 0 -40 0 -40 -40 0 -40 0 0 -40 c0 -33 -3 -40 -20 -40 -13 0 -20
-7 -20 -20 0 -17 -7 -20 -40 -20 -33 0 -40 -3 -40 -20 0 -17 7 -20 43 -22 l42
-1 -42 -4 c-29 -3 -43 -9 -43 -19 0 -8 -5 -14 -11 -14 -6 0 -8 -9 -4 -22 4
-16 3 -19 -3 -9 -7 9 -12 10 -16 2 -9 -14 -46 -15 -46 -1 0 6 -6 10 -12 10
-20 0 -35 13 -42 35 -5 18 -2 21 29 20 37 0 48 -11 18 -17 -16 -3 -16 -4 -1
-10 18 -7 57 16 46 27 -10 10 -87 13 -126 4 -30 -6 -33 -5 -29 11 6 24 -16 56
-31 46 -11 -6 -17 6 -13 27 1 4 -7 3 -18 -3 -26 -14 -31 -13 -25 5 4 8 11 12
16 9 6 -4 9 -1 6 6 -2 7 -13 15 -23 16 -11 2 -26 11 -33 21 -13 16 -13 16 -7
-7 7 -23 7 -23 -9 -7 -10 9 -15 21 -12 25 8 13 -34 44 -51 38 -11 -4 -13 -2
-9 9 3 8 1 15 -5 15 -6 0 -9 6 -6 14 3 8 -1 13 -11 12 -9 0 -17 4 -17 9 0 20
-38 95 -48 95 -5 0 -7 6 -4 14 3 7 -2 20 -11 29 -10 9 -21 21 -27 27 -40 43
-79 71 -91 66 -8 -3 -12 -1 -9 4 6 9 -4 24 -32 53 -30 30 -44 38 -56 31 -6 -4
-9 -4 -5 1 10 10 -9 45 -25 45 -7 0 -27 23 -46 50 -19 28 -41 50 -50 50 -9 0
-35 21 -58 46 -24 25 -47 43 -53 39 -6 -3 -7 0 -4 9 3 9 1 16 -5 16 -6 0 -16
11 -21 25 -5 14 -21 30 -35 35 -14 5 -26 14 -26 20 -1 5 -2 15 -3 22 0 6 -14
19 -30 27 -16 9 -28 20 -26 25 1 5 -2 12 -7 15 -14 10 -63 86 -63 98 0 6 -10
14 -22 18 -22 8 -22 8 4 12 25 4 26 8 33 84 6 68 10 79 26 79 15 0 19 7 19 40
0 33 3 40 20 40 11 0 20 6 20 14 0 8 9 18 20 21 11 3 20 15 20 26 0 16 7 19
40 19 33 0 40 3 40 20 0 17 7 20 49 20 46 0 74 15 70 36 -4 22 4 26 39 19 20
-4 41 -13 45 -21z m147 -54 c0 -5 -4 -10 -10 -10 -5 0 -10 5 -10 10 0 6 5 10
10 10 6 0 10 -4 10 -10z m-610 -274 c0 -23 -17 -28 -34 -10 -21 21 -20 24 9
24 15 0 25 -6 25 -14z m-160 -163 c0 -5 -5 -15 -10 -23 -7 -11 -12 -12 -21 -3
-6 6 -8 16 -5 22 8 12 36 15 36 4z m1700 -3 c0 -5 -2 -10 -4 -10 -3 0 -8 5
-11 10 -3 6 -1 10 4 10 6 0 11 -4 11 -10z m-16 -21 c21 -19 -4 -19 -35 1 l-34
22 30 -7 c17 -3 34 -11 39 -16z m-1664 -24 c0 -8 -6 -15 -14 -15 -17 0 -28 14
-19 24 12 12 33 6 33 -9z m1710 -25 c8 -5 11 -10 5 -10 -5 0 -17 5 -25 10 -8
5 -10 10 -5 10 6 0 17 -5 25 -10z m-1576 -56 c9 -22 -3 -32 -14 -14 -12 19
-12 30 -1 30 5 0 12 -7 15 -16z m36 -44 c0 -5 -2 -10 -4 -10 -3 0 -8 5 -11 10
-3 6 -1 10 4 10 6 0 11 -4 11 -10z m2717 -22 c-3 -8 -6 -5 -6 6 -1 11 2 17 5
13 3 -3 4 -12 1 -19z m-917 -32 c0 -3 -4 -8 -10 -11 -5 -3 -10 -1 -10 4 0 6 5
11 10 11 6 0 10 -2 10 -4z m857 -2 c-3 -3 -12 -4 -19 -1 -8 3 -5 6 6 6 11 1
17 -2 13 -5z m25 -19 c-17 -14 -34 -25 -38 -25 -5 0 4 11 20 25 16 14 33 25
38 25 5 0 -4 -11 -20 -25z m106 -327 l-3 -293 -5 275 -5 275 -60 0 c-60 0 -83
13 -48 26 10 4 42 8 71 8 l52 1 -2 -292z m-833 242 c3 -5 -1 -10 -10 -10 -9 0
-13 5 -10 10 3 6 8 10 10 10 2 0 7 -4 10 -10z m-3032 -67 c-4 -10 -9 -11 -19
-2 -18 15 -18 15 5 15 11 0 17 -5 14 -13z m15 -61 c23 -22 50 -39 60 -38 11 1
16 -5 14 -18 -2 -12 1 -16 10 -10 7 4 10 3 5 -1 -4 -5 7 -15 24 -22 18 -7 29
-16 25 -20 -9 -10 45 -63 57 -56 6 3 7 1 3 -5 -10 -16 7 -15 23 1 10 10 12 9
9 -3 -2 -9 3 -14 12 -12 12 3 13 1 3 -9 -14 -14 -18 -33 -5 -25 9 5 349 -327
482 -471 41 -44 99 -106 128 -137 50 -55 69 -105 40 -107 -54 -3 -124 -22
-273 -73 -191 -66 -250 -88 -253 -98 -2 -4 -8 -6 -13 -3 -4 3 -28 -4 -51 -17
-35 -18 -59 -22 -133 -22 -120 1 -160 14 -228 75 -31 28 -92 77 -134 109 -43
33 -90 69 -105 80 -15 12 -33 18 -39 14 -8 -4 -9 -3 -5 4 5 8 -1 12 -15 12
-12 0 -19 3 -16 7 4 3 1 13 -6 21 -36 45 241 -157 324 -235 54 -51 57 -53 136
-61 106 -12 161 -2 301 54 161 64 406 144 464 151 49 6 53 9 40 30 -15 24
-277 295 -439 454 -190 187 -261 253 -383 359 -47 40 -98 86 -115 103 -43 43
0 18 53 -31z m-91 16 c-3 -8 -6 -5 -6 6 -1 11 2 17 5 13 3 -3 4 -12 1 -19z
m260 -113 c0 -8 -4 -12 -9 -9 -5 3 -6 10 -3 15 9 13 12 11 12 -6z m-316 -32
c-12 -20 -14 -14 -5 12 4 9 9 14 11 11 3 -2 0 -13 -6 -23z m-18 -49 c-4 -12
-8 -13 -14 -3 -9 15 -2 32 11 24 5 -3 6 -13 3 -21z m2011 -266 c60 -62 143
-149 184 -193 42 -44 114 -121 161 -171 119 -125 159 -171 137 -154 -11 8 -33
29 -49 45 -15 17 -65 68 -110 115 -44 47 -143 149 -218 226 -183 189 -229 241
-228 262 0 16 1 16 7 0 4 -9 56 -67 116 -130z m-2103 61 c-5 -13 -10 -19 -10
-12 -1 15 10 45 15 40 3 -2 0 -15 -5 -28z m2259 -119 c0 -5 -4 -10 -10 -10 -5
0 -10 5 -10 10 0 6 5 10 10 10 6 0 10 -4 10 -10z m1557 -1206 c-3 -3 -12 -4
-19 -1 -8 3 -5 6 6 6 11 1 17 -2 13 -5z m-3357 -38 c0 -3 -7 -6 -15 -6 -9 0
-15 9 -15 21 0 18 2 19 15 5 8 -8 15 -17 15 -20z m3185 -2 c13 -21 14 -29 4
-38 -9 -8 -11 -7 -6 6 4 11 -3 24 -20 38 -17 13 -21 20 -10 20 8 0 22 -12 32
-26z m-2395 -52 c11 -12 20 -27 20 -33 0 -7 -16 8 -35 32 -19 24 -35 49 -35
54 1 6 7 1 16 -10 8 -11 24 -30 34 -43z m58 -73 c19 -30 11 -32 -11 -3 -10 13
-14 24 -10 24 5 0 14 -9 21 -21z m480 -9 c7 -11 9 -20 4 -20 -4 0 -13 9 -20
20 -7 11 -9 20 -4 20 4 0 13 -9 20 -20z"/>
<path d="M4640 5030 c-45 -25 -221 -83 -335 -110 -49 -12 -124 -30 -165 -40
-41 -10 -96 -21 -121 -25 -44 -7 -78 -20 -69 -27 3 -2 70 -56 150 -119 146
-115 380 -294 470 -359 292 -210 292 -210 327 -210 32 0 35 2 29 25 -3 13 -1
68 5 122 10 96 72 467 84 509 8 26 -44 89 -113 136 -43 30 -210 118 -221 118
-3 -1 -22 -10 -41 -20z"/>
<path d="M1854 4638 c-4 -7 -4 -10 1 -6 4 4 15 2 24 -5 14 -11 14 -10 2 6 -16
20 -18 21 -27 5z"/>
<path d="M3960 3765 c0 -2 10 -10 23 -16 20 -11 21 -11 8 4 -13 16 -31 23 -31
12z"/>
<path d="M1186 3677 c3 -10 9 -15 12 -12 3 3 0 11 -7 18 -10 9 -11 8 -5 -6z"/>
<path d="M2750 3680 c0 -5 5 -10 11 -10 5 0 7 5 4 10 -3 6 -8 10 -11 10 -2 0
-4 -4 -4 -10z"/>
<path d="M4078 3683 c7 -3 16 -2 19 1 4 3 -2 6 -13 5 -11 0 -14 -3 -6 -6z"/>
<path d="M4118 3658 c5 -5 16 -8 23 -6 8 3 3 7 -10 11 -17 4 -21 3 -13 -5z"/>
<path d="M2760 3650 c-9 -6 -10 -10 -3 -10 6 0 15 5 18 10 8 12 4 12 -15 0z"/>
<path d="M5755 3651 c-3 -5 -1 -12 4 -15 5 -3 11 1 15 9 6 16 -9 21 -19 6z"/>
<path d="M4200 3640 c0 -6 7 -10 15 -10 8 0 15 2 15 4 0 2 -7 6 -15 10 -8 3
-15 1 -15 -4z"/>
<path d="M1232 3626 c7 -8 15 -12 17 -11 5 6 -10 25 -20 25 -5 0 -4 -6 3 -14z"/>
<path d="M2805 3603 c0 -34 3 -38 27 -40 15 -1 30 2 32 6 3 4 -8 7 -24 6 -31
-2 -37 4 -20 21 7 7 6 16 -3 27 -11 16 -12 13 -12 -20z"/>
<path d="M1261 3594 c0 -11 3 -14 6 -6 3 7 2 16 -1 19 -3 4 -6 -2 -5 -13z"/>
<path d="M1269 3532 c5 -34 6 -35 9 -8 2 16 0 32 -5 37 -5 5 -7 -7 -4 -29z"/>
<path d="M4280 3550 c0 -5 5 -10 11 -10 5 0 7 5 4 10 -3 6 -8 10 -11 10 -2 0
-4 -4 -4 -10z"/>
<path d="M4330 3550 c0 -5 5 -10 11 -10 5 0 7 5 4 10 -3 6 -8 10 -11 10 -2 0
-4 -4 -4 -10z"/>
<path d="M4370 3550 c-13 -9 -13 -11 0 -20 8 -5 20 -12 25 -14 6 -3 3 -11 -6
-18 -15 -12 -14 -16 15 -35 l32 -20 24 20 c25 20 22 20 -26 0 -7 -3 -10 5 -7
21 3 14 1 26 -3 26 -5 0 -18 7 -29 16 -17 13 -18 16 -5 24 8 5 11 10 5 10 -5
0 -17 -5 -25 -10z"/>
<path d="M2881 3524 c-1 -16 27 -50 35 -42 4 4 13 0 20 -10 12 -15 13 -15 14
-1 0 19 -26 33 -43 22 -7 -4 -8 0 -4 11 4 9 3 15 -2 11 -5 -3 -12 1 -14 7 -3
7 -6 8 -6 2z"/>
<path d="M2770 3505 c-15 -18 5 -29 41 -23 l23 3 -26 17 c-23 15 -28 15 -38 3z"/>
<path d="M4345 3510 c3 -5 11 -10 16 -10 6 0 7 5 4 10 -3 6 -11 10 -16 10 -6
0 -7 -4 -4 -10z"/>
<path d="M5808 3502 c-3 -11 0 -19 8 -19 8 0 14 9 14 19 0 10 -4 18 -9 18 -5
0 -11 -8 -13 -18z"/>
<path d="M1269 3488 c-5 -11 -5 -68 -1 -63 7 6 12 65 6 65 -2 0 -4 -1 -5 -2z"/>
<path d="M2964 3439 c-3 -6 -1 -16 5 -22 9 -9 10 -7 5 7 -6 15 -4 17 6 11 9
-5 11 -4 6 3 -9 15 -13 15 -22 1z"/>
<path d="M3010 3364 c-10 -11 -9 -15 3 -20 9 -3 21 -3 26 1 7 3 8 0 5 -9 -3
-9 -2 -16 3 -16 5 0 9 13 9 28 0 31 -26 41 -46 16z"/>
<path d="M3280 3700 c0 -23 10 -26 28 -8 18 18 15 28 -8 28 -13 0 -20 -7 -20
-20z"/>
<path d="M3180 3471 c0 -6 5 -13 10 -16 6 -3 10 1 10 9 0 9 -4 16 -10 16 -5 0
-10 -4 -10 -9z"/>
<path d="M4640 3180 c0 -5 5 -10 11 -10 5 0 7 5 4 10 -3 6 -8 10 -11 10 -2 0
-4 -4 -4 -10z"/>
</g>
</svg>
